<svg width="243" height="83" viewBox="0 0 243 83" fill="none" xmlns="http://www.w3.org/2000/svg">
<g clip-path="url(#clip0_664_4068)">
<path d="M25.9913 28.5142L35.5212 23L45.0511 28.5142L41.5474 30.5512L35.5212 27.0741L29.4949 30.5512L25.9913 28.5142ZM45.0511 35.4683L41.5474 33.4312L35.5212 36.9083L29.4949 33.4312L25.9913 35.4683V39.5425L32.0175 43.0195V49.9736L35.5212 52.0107L39.0249 49.9736V43.0195L45.0511 39.5425V35.4683ZM45.0511 46.4966V42.4225L41.5474 44.4595V48.5336L45.0511 46.4966ZM47.5387 47.9366L41.5124 51.4136V55.4878L51.0424 49.9736V38.9453L47.5387 40.9825V47.9366ZM44.0351 31.9912L47.5387 34.0283V38.1025L51.0424 36.0654V31.9912L47.5387 29.9541L44.0351 31.9912ZM32.0175 52.8888V56.963L35.5212 59L39.0249 56.963V52.8888L35.5212 54.9258L32.0175 52.8888ZM25.9913 46.4966L29.4949 48.5336V44.4595L25.9913 42.4225V46.4966ZM32.0175 31.9912L35.5212 34.0283L39.0249 31.9912L35.5212 29.9541L32.0175 31.9912ZM23.5036 34.0283L27.0073 31.9912L23.5036 29.9541L20 31.9912V36.0654L23.5036 38.1025V34.0283ZM23.5036 40.9825L20 38.9453V49.9736L29.5299 55.4878V51.4136L23.5036 47.9366V40.9825Z" fill="#F0B90B"/>
<path d="M78.6641 45.5924V45.5351C78.6641 42.8447 77.2365 41.4995 74.9239 40.6123C76.3514 39.811 77.5506 38.5516 77.5506 36.2905V36.2332C77.5506 33.0849 75.038 31.0527 70.9551 31.0527H61.6758V51.0878H71.1836C75.6948 51.0878 78.6641 49.256 78.6641 45.5924ZM73.1821 37.0346C73.1821 38.5229 71.9545 39.1526 70.013 39.1526H65.9586V34.9166H70.2985C72.1543 34.9166 73.1821 35.6608 73.1821 36.9774V37.0346ZM74.2957 45.0487C74.2957 46.537 73.1251 47.2238 71.1836 47.2238H65.9586V42.8162H71.0408C73.2964 42.8162 74.2957 43.6462 74.2957 44.9914V45.0487Z" fill="#F0B90B"/>
<path d="M100.327 51.0878V31.0527H95.9866V43.3886L86.6217 31.0527H82.5674V51.0878H86.9072V38.3512L96.5862 51.0878H100.327Z" fill="#F0B90B"/>
<path d="M122.398 45.5924V45.5351C122.398 42.8447 120.97 41.4995 118.657 40.6123C120.085 39.811 121.284 38.5516 121.284 36.2905V36.2332C121.284 33.0849 118.771 31.0527 114.688 31.0527H105.409V51.0878H114.917C119.428 51.0878 122.398 49.256 122.398 45.5924ZM116.916 37.0346C116.916 38.5229 115.688 39.1526 113.746 39.1526H109.692V34.9166H114.032C115.888 34.9166 116.916 35.6608 116.916 36.9774V37.0346ZM118.029 45.0487C118.029 46.537 116.859 47.2238 114.917 47.2238H109.692V42.8162H114.774C117.03 42.8162 118.029 43.6462 118.029 44.9914V45.0487Z" fill="#F0B90B"/>
<path d="M148.897 47.5484L146.642 45.2588C144.929 46.8616 143.358 47.8633 140.903 47.8633C137.077 47.8633 134.307 44.6578 134.307 40.708C134.307 36.7582 137.077 33.6098 140.903 33.6098C143.187 33.6098 144.9 34.6116 146.499 36.0999L148.755 33.4954C146.841 31.6636 144.614 30.3756 140.931 30.3756C134.878 30.3756 130.624 35.0409 130.624 40.7653C130.624 46.5467 134.964 51.0976 140.789 51.0976C144.529 51.0976 146.813 49.7237 148.897 47.5484Z" fill="#F0B90B"/>
<path d="M165.922 42.3107V50.754H169.434V30.719H165.922V39.0479H156.386V30.719H152.874V50.754H156.386V42.3107H165.922Z" fill="#F0B90B"/>
<path d="M185.188 30.5759H181.934L173.14 50.754H176.737L178.793 45.917H188.244L190.271 50.754H193.982L185.188 30.5759ZM186.958 42.7973H180.078L183.503 34.7833L186.958 42.7973Z" fill="#F0B90B"/>
<path d="M197.896 30.719V50.754H201.407V30.719H197.896Z" fill="#F0B90B"/>
<path d="M221.004 44.5718L210.297 30.719H207.042V50.754H210.497V36.5005L221.518 50.754H224.46V30.719H221.004V44.5718Z" fill="#F0B90B"/>
</g>
<defs>
<clipPath id="clip0_664_4068">
<rect width="205" height="36" fill="white" transform="translate(20 23)"/>
</clipPath>
</defs>
</svg>
