<svg width="243" height="83" viewBox="0 0 243 83" fill="none" xmlns="http://www.w3.org/2000/svg">
<g clip-path="url(#clip0_664_4070)">
<path d="M93.734 40.6619C93.6836 39.4058 93.8799 38.152 94.3114 36.973C94.743 35.7939 95.4013 34.7128 96.2485 33.7921C97.0956 32.8715 98.1148 32.1294 99.2472 31.6088C100.38 31.0882 101.603 30.7994 102.846 30.7589H103.233C108.038 30.7589 110.875 33.6156 111.714 36.9578L108.726 37.9672C108.458 36.7217 107.755 35.6152 106.747 34.8496C105.738 34.0839 104.491 33.7102 103.233 33.7965C100.123 33.7965 97.0039 36.0913 97.0039 40.7191C97.0039 45.3468 100.048 47.5559 103.27 47.5559C104.535 47.5909 105.775 47.1961 106.791 46.4348C107.808 45.6735 108.542 44.5896 108.877 43.3567L111.808 44.3089C111.302 46.1897 110.177 47.8401 108.618 48.9878C107.059 50.1355 105.159 50.712 103.233 50.6221C100.757 50.668 98.3655 49.7188 96.5825 47.9832C94.7996 46.2477 93.7717 43.8677 93.7246 41.3666C93.7152 41.138 93.7246 40.9 93.734 40.6619Z" fill="white"/>
<path d="M117.622 50.1841H114.531V30.7018H117.622V38.3195C118.071 37.7817 118.635 37.3546 119.272 37.0708C119.909 36.7869 120.602 36.6538 121.297 36.6817C124.492 36.6817 126.009 38.9956 126.009 41.8808V50.1841H123.031V42.433C123.12 41.7723 122.949 41.1026 122.554 40.5682C122.159 40.0339 121.572 39.6777 120.92 39.5764C120.735 39.5572 120.549 39.5572 120.364 39.5764C119.649 39.5764 118.964 39.8633 118.459 40.3741C117.953 40.8848 117.669 41.5775 117.669 42.2997C117.664 42.379 117.664 42.4585 117.669 42.5378L117.622 50.1841Z" fill="white"/>
<path d="M132.944 42.6807L136.261 42.157C137.015 42.0618 137.203 41.6714 137.203 41.2048C137.203 40.1002 136.468 39.2146 134.753 39.2146C134.105 39.1617 133.463 39.369 132.966 39.7915C132.468 40.2139 132.156 40.8175 132.096 41.4714V41.6142L129.269 40.9762C129.504 38.71 131.54 36.6913 134.725 36.6913C138.72 36.6913 140.237 38.9766 140.237 41.6428V48.1464C140.234 48.8511 140.288 49.5549 140.398 50.2508H137.571C137.469 49.6984 137.428 49.1364 137.448 48.5749C137.019 49.2422 136.424 49.7842 135.723 50.1467C135.022 50.5093 134.239 50.6798 133.453 50.6412C132.378 50.7308 131.313 50.3862 130.489 49.6829C129.666 48.9795 129.153 47.9749 129.061 46.8895C129.061 46.8228 129.061 46.7562 129.061 46.699C129.014 44.2899 130.72 42.9949 132.944 42.6807ZM137.222 44.7851V44.1852L133.839 44.6994C133.38 44.7141 132.944 44.9076 132.623 45.2394C132.301 45.5713 132.119 46.0158 132.115 46.48C132.118 46.7101 132.167 46.9371 132.259 47.1479C132.35 47.3586 132.482 47.5489 132.647 47.7075C132.812 47.8662 133.006 47.9901 133.219 48.072C133.432 48.1539 133.659 48.1921 133.886 48.1845H134.028C134.413 48.2253 134.803 48.1886 135.175 48.0764C135.546 47.9643 135.892 47.779 136.193 47.5312C136.493 47.2834 136.742 46.9779 136.925 46.6325C137.108 46.287 137.222 45.9083 137.26 45.5183C137.273 45.2729 137.257 45.0267 137.213 44.7851H137.222Z" fill="white"/>
<path d="M145.496 30.4352C145.762 30.4314 146.025 30.4807 146.272 30.5802C146.519 30.6797 146.744 30.8275 146.934 31.0151C147.124 31.2027 147.275 31.4264 147.379 31.6733C147.484 31.9202 147.538 32.1855 147.541 32.4539C147.541 32.8557 147.423 33.2485 147.203 33.583C146.983 33.9174 146.669 34.1786 146.302 34.3336C145.936 34.4886 145.532 34.5306 145.141 34.4543C144.751 34.378 144.392 34.1867 144.108 33.9046C143.825 33.6224 143.631 33.262 143.55 32.8686C143.469 32.4753 143.505 32.0665 143.653 31.6937C143.802 31.3208 144.056 31.0007 144.384 30.7734C144.711 30.5461 145.099 30.4218 145.496 30.4161V30.4352ZM143.988 50.2412V37.0816H147.079V50.1841L143.988 50.2412Z" fill="white"/>
<path d="M154.118 50.1841H151.036V37.0816H154.042V38.8242C154.434 38.155 154.997 37.6048 155.672 37.2312C156.347 36.8576 157.108 36.6744 157.877 36.7007C161.044 36.7007 162.589 39.0146 162.589 41.8998V50.1841H159.508V42.4331C159.508 40.8238 158.782 39.5193 156.841 39.5193C156.482 39.5218 156.127 39.5957 155.796 39.7368C155.466 39.8778 155.166 40.0833 154.914 40.3415C154.662 40.5997 154.463 40.9055 154.328 41.2415C154.193 41.5775 154.124 41.9371 154.127 42.2997C154.127 42.4045 154.127 42.5092 154.127 42.614L154.118 50.1841Z" fill="white"/>
<path d="M166.321 50.1841V30.7018H169.412V50.1841H166.321Z" fill="white"/>
<path d="M174.925 30.4352C175.322 30.4333 175.712 30.5509 176.043 30.773C176.375 30.9952 176.633 31.3119 176.786 31.6828C176.94 32.0538 176.98 32.4624 176.903 32.8567C176.826 33.2511 176.634 33.6133 176.353 33.8976C176.072 34.1818 175.713 34.3751 175.323 34.4531C174.933 34.5311 174.529 34.4901 174.161 34.3354C173.794 34.1807 173.481 33.9193 173.261 33.5843C173.041 33.2493 172.925 32.8558 172.927 32.4539C172.932 31.92 173.144 31.4095 173.517 31.032C173.891 30.6544 174.396 30.4402 174.925 30.4352ZM173.407 50.2412V37.0816H176.47V50.1841L173.407 50.2412Z" fill="white"/>
<path d="M183.556 50.1841H180.465V37.0817H183.471V38.8242C183.864 38.1558 184.427 37.6061 185.101 37.2326C185.776 36.8591 186.537 36.6754 187.306 36.7008C190.472 36.7008 192.018 39.0147 192.018 41.8999V50.1841H188.927V42.4331C189.016 41.7724 188.845 41.1027 188.45 40.5683C188.055 40.034 187.468 39.6778 186.816 39.5765C186.628 39.5574 186.439 39.5574 186.251 39.5765C185.531 39.584 184.843 39.8783 184.337 40.3953C183.83 40.9124 183.546 41.6104 183.546 42.3379C183.537 42.4488 183.537 42.5603 183.546 42.6712L183.556 50.1841Z" fill="white"/>
<path d="M202.563 42.614L208 50.2317H204.231L200.462 44.8326L198.869 46.5276V50.1841H195.807V30.7018H198.869V42.3759L203.845 37.0816H207.944L202.563 42.614Z" fill="white"/>
<path d="M57.1435 25.4266L70.5056 33.1776V48.7558L57.1812 56.5544L43.8284 48.8224V33.2537L57.1435 25.4266ZM57.1435 14L52.2434 16.8566L38.9001 24.6838L34 27.5405V54.5548L38.9001 57.4114L52.2622 65.1624L57.1623 68.019L62.0624 65.1624L75.3774 57.3543L80.2775 54.4976V27.4452L75.3774 24.5886L62.0247 16.8566L57.1246 14H57.1435Z" fill="#375BD2"/>
</g>
<defs>
<clipPath id="clip0_664_4070">
<rect width="174" height="54" fill="white" transform="translate(34 14)"/>
</clipPath>
</defs>
</svg>
