<svg width="243" height="83" viewBox="0 0 243 83" fill="none" xmlns="http://www.w3.org/2000/svg">
<g clip-path="url(#clip0_664_4072)">
<path d="M33.3827 58.8828C42.983 58.8828 50.7655 51.1003 50.7655 41.5001C50.7655 31.8998 42.983 24.1173 33.3827 24.1173C23.7825 24.1173 16 31.8998 16 41.5001C16 51.1003 23.7825 58.8828 33.3827 58.8828Z" fill="url(#paint0_linear_664_4072)"/>
<path d="M32.2465 53.0274C31.6305 53.0274 31.025 52.9066 30.4458 52.6721C29.4658 52.2714 28.652 51.5591 28.127 50.6509L28.1165 50.6561C27.6948 50.8294 27.252 50.9169 26.797 50.9169C26.1093 50.9169 25.4425 50.7139 24.8685 50.3289C23.906 49.6849 23.332 48.6086 23.332 47.4501V36.4199C23.332 35.2544 23.913 34.1729 24.886 33.5289C25.4565 33.1526 26.1163 32.9531 26.797 32.9531C27.2555 32.9531 27.7035 33.0424 28.1288 33.2209C28.6538 32.3144 29.4658 31.6039 30.444 31.2049C31.0215 30.9686 31.627 30.8496 32.2448 30.8496C32.8765 30.8496 33.496 30.9756 34.0858 31.2224L41.784 34.4546C42.4438 34.7311 42.9565 35.2491 43.2278 35.9124C43.499 36.5756 43.4955 37.3036 43.219 37.9634C42.9425 38.6231 42.4245 39.1359 41.7613 39.4071C41.4375 39.5401 41.0963 39.6066 40.748 39.6066C40.391 39.6066 40.0428 39.5366 39.7103 39.3966L29.023 34.9096V48.9674L39.712 44.4804C40.0428 44.3421 40.391 44.2721 40.7463 44.2721C41.8313 44.2721 42.8025 44.9179 43.2208 45.9154C43.4973 46.5751 43.5008 47.3049 43.2295 47.9664C42.9583 48.6296 42.4455 49.1459 41.7858 49.4241L34.0858 52.6564C33.4995 52.9014 32.88 53.0274 32.2465 53.0274ZM29.254 50.1784C29.646 50.7926 30.2218 51.2756 30.9043 51.5539C31.3365 51.7306 31.788 51.8199 32.2483 51.8199C32.719 51.8199 33.181 51.7271 33.622 51.5416L41.3203 48.3094C41.6825 48.1571 41.9643 47.8719 42.1148 47.5079C42.2653 47.1439 42.2618 46.7431 42.1095 46.3809C41.8785 45.8331 41.3448 45.4779 40.748 45.4779C40.552 45.4779 40.3613 45.5164 40.181 45.5934L29.254 50.1784ZM26.7988 34.1659C26.356 34.1659 25.9273 34.2954 25.558 34.5404C24.9263 34.9586 24.5483 35.6604 24.5483 36.4181V47.4484C24.5483 48.2114 24.9123 48.8939 25.5458 49.3191C25.9238 49.5711 26.3543 49.7059 26.7918 49.7059C27.084 49.7059 27.3745 49.6481 27.6545 49.5326L27.8085 49.4696V34.4021L27.679 34.3479C27.4008 34.2271 27.1033 34.1659 26.7988 34.1659ZM40.1793 38.2819C40.363 38.3589 40.5538 38.3974 40.7498 38.3974C40.9405 38.3974 41.1278 38.3606 41.308 38.2871C41.672 38.1384 41.9573 37.8566 42.1095 37.4944C42.2618 37.1321 42.2635 36.7314 42.1148 36.3674C41.966 36.0034 41.6843 35.7199 41.3203 35.5676L33.622 32.3354C33.181 32.1499 32.719 32.0571 32.2483 32.0571C31.788 32.0571 31.3365 32.1464 30.906 32.3231C30.213 32.6066 29.6495 33.0774 29.2558 33.6986L40.1793 38.2819Z" fill="white"/>
<path d="M32.2523 52.9625C31.6381 52.9625 31.0343 52.8435 30.4586 52.6073C29.4821 52.2083 28.6701 51.4978 28.1486 50.593L28.1381 50.5983C27.7181 50.7715 27.2771 50.859 26.8238 50.859C26.1378 50.859 25.4746 50.656 24.9023 50.2728C23.9433 49.6305 23.3711 48.5578 23.3711 47.4045V36.411C23.3711 35.249 23.9503 34.1728 24.9198 33.5305C25.4886 33.1543 26.1466 32.9565 26.8238 32.9565C27.2806 32.9565 27.7286 33.0458 28.1521 33.2225C28.6753 32.3195 29.4856 31.6108 30.4586 31.2135C31.0343 30.979 31.6381 30.8583 32.2523 30.8583C32.8823 30.8583 33.4983 30.9825 34.0863 31.2293L41.7601 34.451C42.4181 34.7275 42.9291 35.2438 43.1986 35.9035C43.4681 36.5633 43.4646 37.2895 43.1898 37.9475C42.9133 38.6055 42.3971 39.1165 41.7373 39.386C41.4136 39.519 41.0741 39.5855 40.7276 39.5855C40.3723 39.5855 40.0241 39.5155 39.6933 39.3773L29.0411 34.906V48.9148L39.6933 44.4435C40.0223 44.3053 40.3688 44.2353 40.7241 44.2353C41.8056 44.2353 42.7733 44.8775 43.1898 45.8733C43.4663 46.5313 43.4698 47.2575 43.1986 47.9173C42.9291 48.577 42.4181 49.0933 41.7601 49.3698L34.0863 52.5898C33.5001 52.8383 32.8823 52.9625 32.2523 52.9625ZM29.2686 50.124C29.6588 50.7365 30.2328 51.2178 30.9118 51.4943C31.3423 51.671 31.7921 51.7585 32.2506 51.7585C32.7196 51.7585 33.1798 51.6658 33.6191 51.4803L41.2911 48.2585C41.6533 48.1063 41.9333 47.8228 42.0821 47.4605C42.2308 47.0983 42.2291 46.6993 42.0768 46.337C41.8476 45.791 41.3156 45.4375 40.7206 45.4375C40.5263 45.4375 40.3356 45.476 40.1553 45.5513L29.2686 50.124ZM26.8221 34.1658C26.3811 34.1658 25.9541 34.2953 25.5848 34.5385C24.9548 34.955 24.5786 35.655 24.5786 36.411V47.4045C24.5786 48.1658 24.9408 48.8448 25.5726 49.2683C25.9488 49.5203 26.3776 49.6533 26.8151 49.6533C27.1073 49.6533 27.3961 49.5955 27.6761 49.48L27.8301 49.417V34.4003L27.7023 34.346C27.4223 34.227 27.1266 34.1658 26.8221 34.1658ZM40.1571 38.2678C40.3391 38.3448 40.5298 38.3833 40.7258 38.3833C40.9166 38.3833 41.1021 38.3465 41.2823 38.273C41.6463 38.1243 41.9298 37.8443 42.0803 37.482C42.2326 37.1198 42.2343 36.7208 42.0856 36.3585C41.9368 35.9963 41.6568 35.7128 41.2946 35.5605L33.6226 32.3388C33.1833 32.155 32.7231 32.0605 32.2541 32.0605C31.7956 32.0605 31.3458 32.1498 30.9153 32.3248C30.2258 32.6065 29.6623 33.0773 29.2703 33.695L40.1571 38.2678Z" fill="#F4F4F4"/>
<path d="M64.9667 51.6151C63.8029 50.9606 62.9087 50.0243 62.2839 48.8046C61.6592 47.5848 61.3477 46.1411 61.3477 44.4733V38.4936C61.3477 36.8258 61.6592 35.3821 62.2839 34.1623C62.9087 32.9426 63.8029 32.0046 64.9667 31.3448C66.1304 30.6851 67.5024 30.3561 69.0809 30.3561C70.3899 30.3561 71.5764 30.6361 72.6404 31.1943C73.7044 31.7543 74.5882 32.5611 75.2934 33.6146C75.9969 34.6698 76.4799 35.9158 76.7407 37.3543H73.0534C72.8732 36.6561 72.5897 36.0436 72.1994 35.5186C71.8109 34.9936 71.3472 34.5928 70.8134 34.3128C70.2779 34.0328 69.7004 33.8928 69.0827 33.8928C68.2532 33.8928 67.5357 34.0801 66.9319 34.4546C66.3264 34.8291 65.8609 35.3611 65.5302 36.0506C65.2012 36.7401 65.0367 37.5556 65.0367 38.4936V44.4733C65.0367 45.4131 65.2012 46.2268 65.5302 46.9163C65.8609 47.6058 66.3264 48.1361 66.9319 48.5053C67.5357 48.8746 68.2532 49.0601 69.0827 49.0601C69.7109 49.0601 70.2937 48.9253 70.8274 48.6558C71.3629 48.3863 71.8249 47.9908 72.2134 47.4711C72.6019 46.9513 72.8819 46.3266 73.0534 45.5968H76.7407C76.4712 47.0353 75.9847 48.2813 75.2794 49.3366C74.5742 50.3918 73.6904 51.1968 72.6264 51.7568C71.5624 52.3168 70.3812 52.5951 69.0827 52.5951C67.5007 52.5968 66.1304 52.2696 64.9667 51.6151Z" fill="white"/>
<path d="M81.5527 30.5801H85.135V52.3728H81.5527V30.5801ZM83.455 39.8866H95.8502V43.3183H83.455V39.8866ZM93.7082 30.5801H97.2905V52.3728H93.7082V30.5801Z" fill="white"/>
<path d="M109.24 30.5801H111.847L120.032 52.3728H116.178L110.543 36.1398L104.908 52.3728H101.057L109.24 30.5801ZM104.908 44.8023H116.374V48.2341H104.908V44.8023Z" fill="white"/>
<path d="M127.303 52.3711H123.646V30.5801H127.303V52.3711Z" fill="white"/>
<path d="M133.016 30.5801H136.913L146.295 47.3521L145.934 47.7423V30.5801H149.411V52.3588H145.484L136.132 35.8423L136.493 35.4521V52.3588H133.016V30.5801Z" fill="white"/>
<path d="M155.277 30.5801H158.86V52.3728H155.277V30.5801ZM157.001 40.4868H163.971C164.551 40.4868 165.058 40.3538 165.492 40.0896C165.928 39.8253 166.267 39.4473 166.511 38.9573C166.754 38.4673 166.878 37.9021 166.878 37.2633C166.878 36.6141 166.757 36.0453 166.518 35.5553C166.278 35.0653 165.938 34.6856 165.499 34.4161C165.06 34.1466 164.551 34.0118 163.971 34.0118H157.001V30.5801H163.866C165.195 30.5801 166.364 30.8583 167.373 31.4113C168.381 31.9661 169.167 32.7483 169.725 33.7563C170.285 34.7661 170.565 35.9351 170.565 37.2633C170.565 38.5916 170.285 39.7588 169.725 40.7633C169.165 41.7678 168.381 42.5448 167.373 43.0943C166.364 43.6438 165.195 43.9186 163.866 43.9186H157.001V40.4868Z" fill="white"/>
<path d="M175.153 30.5801H178.736V52.3728H175.153V30.5801ZM176.832 48.9393H189.451V52.3711H176.832V48.9393Z" fill="white"/>
<path d="M199.603 30.5801H202.21L210.395 52.3728H206.542L200.907 36.1398L195.272 52.3728H191.42L199.603 30.5801ZM195.272 44.8023H206.738V48.2341H195.272V44.8023Z" fill="white"/>
<path d="M219.465 43.7384V52.3711H215.899V43.7384L209.362 30.5784H213.214L217.68 40.1859L222.146 30.5784H225.998L219.465 43.7384Z" fill="white"/>
</g>
<defs>
<linearGradient id="paint0_linear_664_4072" x1="16.1067" y1="1762.39" x2="3492.58" y2="1762.39" gradientUnits="userSpaceOnUse">
<stop stop-color="#D71C5D"/>
<stop offset="0.109" stop-color="#DC2B54"/>
<stop offset="0.5225" stop-color="#EF6233"/>
<stop offset="0.8319" stop-color="#FB831F"/>
<stop offset="1" stop-color="#FF9017"/>
</linearGradient>
<clipPath id="clip0_664_4072">
<rect width="210" height="35" fill="white" transform="translate(16 24)"/>
</clipPath>
</defs>
</svg>
