<svg width="243" height="83" viewBox="0 0 243 83" fill="none" xmlns="http://www.w3.org/2000/svg">
<g clip-path="url(#clip0_664_4071)">
<mask id="mask0_664_4071" style="mask-type:luminance" maskUnits="userSpaceOnUse" x="39" y="19" width="165" height="45">
<path d="M203.777 19H39V63.745H203.777V19Z" fill="white"/>
</mask>
<g mask="url(#mask0_664_4071)">
<path d="M58.8307 19L39 30.19V52.5625L58.8307 63.745L78.6461 52.5625V30.19L58.8307 19ZM72.7751 49.2475L58.8307 57.115L44.8786 49.2475V33.4975L58.8307 25.63L72.7751 33.4975V49.2475Z" fill="white"/>
<path d="M68.0779 46.5993L58.8226 51.8193L49.5596 46.5993V36.1518L58.8226 30.9243L68.0779 36.1518L64.2254 38.3268L58.8226 35.2743L53.4198 38.3268V44.4168L58.8226 47.4693L64.2254 44.4168L68.0779 46.5993Z" fill="white"/>
<path d="M93.3189 43.0673V43.0073C93.3056 41.8218 93.5346 40.6456 93.9927 39.5478C94.4508 38.4499 95.1286 37.4526 95.9865 36.6142C96.8443 35.7759 97.8649 35.1135 98.9882 34.6658C100.112 34.2181 101.315 33.9942 102.528 34.0073C103.858 33.9618 105.182 34.2076 106.402 34.7267C107.623 35.2458 108.709 36.025 109.581 37.0073L107.041 39.6548C105.805 38.4098 104.501 37.4948 102.498 37.4948C99.5582 37.4948 97.3864 39.9773 97.3864 42.9848V43.0523C97.3864 46.1198 99.5582 48.5648 102.659 48.5648C103.536 48.5482 104.4 48.3505 105.193 47.9847C105.987 47.6189 106.692 47.0933 107.263 46.4423L109.704 48.7973C108.492 50.2128 106.865 51.2317 105.043 51.7169C103.22 52.2021 101.289 52.1303 99.5101 51.5112C97.7307 50.892 96.188 49.7553 95.0894 48.2538C93.9908 46.7523 93.389 44.958 93.365 43.1123L93.3189 43.0673Z" fill="white"/>
<path d="M113.334 34.3521H117.409V38.2371C118.514 35.6571 120.548 33.8946 123.656 34.0221V38.2071H123.426C119.88 38.2071 117.409 40.4571 117.409 45.0246V51.5871H113.334V34.3521Z" fill="white"/>
<path d="M125.599 43.0683V43.0083C125.659 40.6155 126.672 38.3399 128.422 36.6652C130.172 34.9906 132.521 34.0488 134.97 34.04C137.42 34.0312 139.776 34.9561 141.538 36.6182C143.3 38.2803 144.33 40.5484 144.409 42.9408V43.0083C144.409 44.2107 144.163 45.4009 143.685 46.5088C143.207 47.6166 142.506 48.6197 141.625 49.4586C140.743 50.2976 139.7 50.9554 138.554 51.3933C137.407 51.8313 136.184 52.0404 134.954 52.0083C133.734 52.0383 132.521 51.8292 131.386 51.3931C130.25 50.9571 129.216 50.3029 128.344 49.4694C127.472 48.636 126.78 47.64 126.308 46.5406C125.837 45.4411 125.595 44.2604 125.599 43.0683ZM140.364 43.0683V43.0083C140.395 42.2931 140.278 41.5791 140.021 40.9089C139.763 40.2387 139.37 39.6261 138.865 39.1075C138.361 38.5889 137.754 38.1749 137.082 37.8903C136.41 37.6056 135.686 37.4562 134.954 37.4508C131.708 37.4508 129.635 39.9333 129.635 42.9408V43.0083C129.608 43.7175 129.726 44.4248 129.982 45.0886C130.239 45.7524 130.629 46.3593 131.13 46.8732C131.631 47.3871 132.232 47.7976 132.899 48.0806C133.564 48.3636 134.282 48.5133 135.008 48.5208C138.292 48.5208 140.364 46.0383 140.364 43.0683Z" fill="white"/>
<path d="M148.483 34.3532H152.543V37.0007C153.118 36.0767 153.929 35.3144 154.897 34.7885C155.864 34.2626 156.954 33.9912 158.061 34.0007C162.036 34.0007 164.338 36.6107 164.338 40.5932V51.5957H160.294V41.7932C160.294 39.1157 158.928 37.5857 156.518 37.5857C154.108 37.5857 152.543 39.1907 152.543 41.8607V51.6107H148.468L148.483 34.3532Z" fill="white"/>
<path d="M168.268 43.0683V43.0083C168.328 40.6155 169.341 38.3399 171.091 36.6652C172.841 34.9906 175.19 34.0488 177.639 34.04C180.089 34.0312 182.445 34.9561 184.207 36.6182C185.969 38.2803 186.999 40.5484 187.078 42.9408V43.0083C187.078 44.2107 186.832 45.4009 186.354 46.5088C185.876 47.6166 185.175 48.6197 184.294 49.4586C183.413 50.2976 182.369 50.9554 181.223 51.3933C180.076 51.8313 178.853 52.0404 177.623 52.0083C176.403 52.0383 175.19 51.8292 174.055 51.3931C172.919 50.9571 171.885 50.3029 171.013 49.4694C170.141 48.636 169.449 47.64 168.977 46.5406C168.506 45.4411 168.264 44.2604 168.268 43.0683ZM183.033 43.0683V43.0083C183.064 42.2931 182.947 41.5791 182.69 40.9089C182.432 40.2387 182.039 39.6261 181.534 39.1075C181.03 38.5889 180.423 38.1749 179.751 37.8903C179.079 37.6056 178.355 37.4562 177.623 37.4508C174.376 37.4508 172.304 39.9333 172.304 42.9408V43.0083C172.277 43.7175 172.395 44.4248 172.651 45.0886C172.908 45.7524 173.298 46.3593 173.799 46.8732C174.3 47.3871 174.901 47.7976 175.568 48.0806C176.233 48.3636 176.95 48.5133 177.676 48.5208C180.938 48.5208 183.033 46.0383 183.033 43.0683Z" fill="white"/>
<path d="M189.749 49.3371L191.553 46.6596C193.201 47.9463 195.224 48.6894 197.331 48.7821C199.073 48.7821 200.071 48.0321 200.071 46.9221V46.8546C200.071 45.5196 198.206 45.0621 196.134 44.4396C193.525 43.6896 190.616 42.6771 190.616 39.4146V39.3471C190.616 36.0471 193.394 34.0596 196.902 34.0596C199.206 34.1014 201.452 34.7801 203.379 36.0171L201.775 38.8221C200.291 37.8659 198.576 37.3049 196.802 37.1946C195.267 37.1946 194.331 37.9446 194.331 38.8896V38.9571C194.331 40.2321 196.234 40.7496 198.306 41.4021C200.877 42.1896 203.786 43.3296 203.786 46.4346V46.4946C203.786 50.1246 200.908 51.9171 197.232 51.9171C194.513 51.898 191.879 50.9898 189.749 49.3371Z" fill="white"/>
</g>
</g>
<defs>
<clipPath id="clip0_664_4071">
<rect width="165" height="45" fill="white" transform="translate(39 19)"/>
</clipPath>
</defs>
</svg>
