<svg width="243" height="83" viewBox="0 0 243 83" fill="none" xmlns="http://www.w3.org/2000/svg">
<g clip-path="url(#clip0_664_4069)">
<path d="M65.9539 33.9979C65.2216 33.5412 64.2694 33.5412 63.4639 33.9979L57.7513 37.4989L53.8698 39.7822L48.1573 43.2833C47.425 43.7399 46.4729 43.7399 45.6673 43.2833L41.1266 40.5434C40.3942 40.0867 39.8816 39.2495 39.8816 38.3361V32.9323C39.8816 32.019 40.321 31.1818 41.1266 30.7252L45.594 28.0613C46.3264 27.6046 47.2784 27.6046 48.0841 28.0613L52.5516 30.7252C53.2839 31.1818 53.7966 32.019 53.7966 32.9323V36.4334L57.6781 34.074V30.5729C57.6781 29.6596 57.2388 28.8224 56.4331 28.3658L48.1573 23.3425C47.425 22.8858 46.4729 22.8858 45.6673 23.3425L37.245 28.3658C36.4394 28.8224 36 29.6596 36 30.5729V40.6956C36 41.6088 36.4394 42.4461 37.245 42.9027L45.6673 47.926C46.3997 48.3827 47.3518 48.3827 48.1573 47.926L53.8698 44.501L57.7513 42.1416L63.4639 38.7167C64.1962 38.2601 65.1483 38.2601 65.9539 38.7167L70.4213 41.3806C71.1538 41.8372 71.6664 42.6744 71.6664 43.5877V48.9915C71.6664 49.9048 71.227 50.7421 70.4213 51.1987L65.9539 53.9387C65.2216 54.3954 64.2694 54.3954 63.4639 53.9387L58.9964 51.2748C58.264 50.8182 57.7513 49.981 57.7513 49.0676V45.5666L53.8698 47.926V51.4271C53.8698 52.3403 54.3092 53.1776 55.1149 53.6342L63.5371 58.6576C64.2694 59.1142 65.2216 59.1142 66.0271 58.6576L74.4494 53.6342C75.1818 53.1776 75.6944 52.3403 75.6944 51.4271V41.3044C75.6944 40.3911 75.255 39.5539 74.4494 39.0973L65.9539 33.9979Z" fill="#7950DD"/>
<path d="M91.1576 55.7628V47.359C92.0507 48.5065 93.6715 49.1478 95.557 49.1478C100.353 49.1478 103.595 45.6715 103.595 40.3728C103.595 35.074 100.618 31.5978 95.9539 31.5978C93.8038 31.5978 92.1499 32.4078 91.1576 33.724V31.8678H86.5596V55.7628H91.1576ZM94.9947 45.0978C92.5138 45.0978 90.8929 43.2078 90.8929 40.3728C90.8929 37.504 92.5138 35.614 94.9947 35.614C97.4094 35.614 99.0634 37.504 99.0634 40.3728C99.0634 43.2078 97.4094 45.0978 94.9947 45.0978Z" fill="white"/>
<path d="M114.036 49.1478C119.163 49.1478 122.835 45.4353 122.835 40.3728C122.835 35.3103 119.163 31.5978 114.036 31.5978C108.909 31.5978 105.237 35.3103 105.237 40.3728C105.237 45.4353 108.909 49.1478 114.036 49.1478ZM114.036 45.0978C111.555 45.0978 109.868 43.174 109.868 40.3728C109.868 37.5378 111.555 35.614 114.036 35.614C116.517 35.614 118.204 37.5378 118.204 40.3728C118.204 43.174 116.517 45.0978 114.036 45.0978Z" fill="white"/>
<path d="M130.213 48.8778V24.4766H125.615V48.8778H130.213Z" fill="white"/>
<path d="M144.034 31.8678L140.561 42.8365L137.055 31.8678H132.357L138.411 48.7428L135.963 55.7628H140.363L142.711 48.8103L148.765 31.8678H144.034Z" fill="white"/>
<path d="M161.678 33.5553C160.751 32.374 159.098 31.5978 157.08 31.5978C152.217 31.5978 149.273 35.074 149.273 40.3728C149.273 45.6715 152.217 49.1478 157.146 49.1478C159.098 49.1478 160.85 48.4053 161.711 47.1565V49.384C161.711 50.9703 160.686 52.084 159.296 52.084H151.621V55.7628H160.023C163.795 55.7628 166.309 53.434 166.309 49.8903V31.8678H161.678V33.5553ZM157.873 45.0978C155.426 45.0978 153.805 43.2415 153.805 40.3728C153.805 37.504 155.426 35.614 157.873 35.614C160.355 35.614 161.976 37.504 161.976 40.3728C161.976 43.2415 160.355 45.0978 157.873 45.0978Z" fill="white"/>
<path d="M177.9 49.1478C183.028 49.1478 186.699 45.4353 186.699 40.3728C186.699 35.3103 183.028 31.5978 177.9 31.5978C172.774 31.5978 169.102 35.3103 169.102 40.3728C169.102 45.4353 172.774 49.1478 177.9 49.1478ZM177.9 45.0978C175.419 45.0978 173.733 43.174 173.733 40.3728C173.733 37.5378 175.419 35.614 177.9 35.614C180.382 35.614 182.068 37.5378 182.068 40.3728C182.068 43.174 180.382 45.0978 177.9 45.0978Z" fill="white"/>
<path d="M193.846 48.8778V39.5628C193.846 37.369 195.268 35.7828 197.286 35.7828C199.204 35.7828 200.494 37.2678 200.494 39.3265V48.8778H205.125V38.2803C205.125 34.3653 202.677 31.5978 198.906 31.5978C196.624 31.5978 194.772 32.5765 193.846 34.2303V31.8678H189.215V48.8778H193.846Z" fill="white"/>
</g>
<defs>
<clipPath id="clip0_664_4069">
<rect width="170" height="36" fill="white" transform="translate(36 23)"/>
</clipPath>
</defs>
</svg>
