<svg width="24" height="22" viewBox="0 0 24 22" fill="none" xmlns="http://www.w3.org/2000/svg">
<g clip-path="url(#clip0_569_709)">
<path d="M22.6 0.666687L13.5938 7.14555L15.2685 3.32735L22.6 0.666687Z" fill="#E17726" stroke="#E17726" stroke-width="0.25" stroke-linecap="round" stroke-linejoin="round"/>
<path d="M1.82611 0.666687L10.7522 7.20602L9.1576 3.32734L1.82611 0.666687Z" fill="#E27625" stroke="#E27625" stroke-width="0.25" stroke-linecap="round" stroke-linejoin="round"/>
<path d="M19.3572 15.6889L16.9609 19.248L22.092 20.6215L23.5619 15.7667L19.3572 15.6889Z" fill="#E27625" stroke="#E27625" stroke-width="0.25" stroke-linecap="round" stroke-linejoin="round"/>
<path d="M0.872559 15.7668L2.3335 20.6216L7.45575 19.248L5.06833 15.689L0.872559 15.7668Z" fill="#E27625" stroke="#E27625" stroke-width="0.25" stroke-linecap="round" stroke-linejoin="round"/>
<path d="M7.17953 9.67655L5.75424 11.7671L10.8319 11.9917L10.6627 6.67902L7.17953 9.67655Z" fill="#E27625" stroke="#E27625" stroke-width="0.25" stroke-linecap="round" stroke-linejoin="round"/>
<path d="M17.2459 9.67667L13.7094 6.61865L13.5936 11.9918L18.6712 11.7672L17.2459 9.67667Z" fill="#E27625" stroke="#E27625" stroke-width="0.25" stroke-linecap="round" stroke-linejoin="round"/>
<path d="M7.45581 19.248L10.5291 17.8054L7.88342 15.8013L7.45581 19.248Z" fill="#E27625" stroke="#E27625" stroke-width="0.25" stroke-linecap="round" stroke-linejoin="round"/>
<path d="M13.8964 17.8054L16.9608 19.248L16.5421 15.8013L13.8964 17.8054Z" fill="#E27625" stroke="#E27625" stroke-width="0.25" stroke-linecap="round" stroke-linejoin="round"/>
<path d="M16.9608 19.2481L13.8964 17.8055L14.1458 19.7405L14.1191 20.5611L16.9608 19.2481Z" fill="#D5BFB2" stroke="#D5BFB2" stroke-width="0.25" stroke-linecap="round" stroke-linejoin="round"/>
<path d="M7.45581 19.2481L10.3065 20.5611L10.2886 19.7405L10.5291 17.8055L7.45581 19.2481Z" fill="#D5BFB2" stroke="#D5BFB2" stroke-width="0.25" stroke-linecap="round" stroke-linejoin="round"/>
<path d="M10.36 14.5228L7.81219 13.7972L9.61165 12.9938L10.36 14.5228Z" fill="#233447" stroke="#233447" stroke-width="0.25" stroke-linecap="round" stroke-linejoin="round"/>
<path d="M14.0659 14.5228L14.8142 12.9938L16.6225 13.7972L14.0659 14.5228Z" fill="#233447" stroke="#233447" stroke-width="0.25" stroke-linecap="round" stroke-linejoin="round"/>
<path d="M7.45589 19.248L7.90133 15.6889L5.06851 15.7667L7.45589 19.248Z" fill="#CC6228" stroke="#CC6228" stroke-width="0.25" stroke-linecap="round" stroke-linejoin="round"/>
<path d="M16.5241 15.689L16.9606 19.248L19.3569 15.7668L16.5241 15.689Z" fill="#CC6228" stroke="#CC6228" stroke-width="0.25" stroke-linecap="round" stroke-linejoin="round"/>
<path d="M18.6712 11.7671L13.5936 11.9917L14.0657 14.5228L14.814 12.9938L16.6224 13.7972L18.6712 11.7671Z" fill="#CC6228" stroke="#CC6228" stroke-width="0.25" stroke-linecap="round" stroke-linejoin="round"/>
<path d="M7.81204 13.7972L9.61149 12.9938L10.3598 14.5228L10.8319 11.9917L5.75424 11.7671L7.81204 13.7972Z" fill="#CC6228" stroke="#CC6228" stroke-width="0.25" stroke-linecap="round" stroke-linejoin="round"/>
<path d="M5.75491 11.7671L7.88399 15.8013L7.81268 13.7972L5.75491 11.7671Z" fill="#E27525" stroke="#E27525" stroke-width="0.25" stroke-linecap="round" stroke-linejoin="round"/>
<path d="M16.6223 13.7972L16.5422 15.8013L18.6712 11.7671L16.6223 13.7972Z" fill="#E27525" stroke="#E27525" stroke-width="0.25" stroke-linecap="round" stroke-linejoin="round"/>
<path d="M10.8324 11.9916L10.3602 14.5228L10.957 17.5116L11.0907 13.5725L10.8324 11.9916Z" fill="#E27525" stroke="#E27525" stroke-width="0.25" stroke-linecap="round" stroke-linejoin="round"/>
<path d="M13.5934 11.9917L13.344 13.564L13.4687 17.5117L14.0655 14.5228L13.5934 11.9917Z" fill="#E27525" stroke="#E27525" stroke-width="0.25" stroke-linecap="round" stroke-linejoin="round"/>
<path d="M14.0661 14.5228L13.4692 17.5117L13.8968 17.8054L16.5426 15.8013L16.6227 13.7972L14.0661 14.5228Z" fill="#F5841F" stroke="#F5841F" stroke-width="0.25" stroke-linecap="round" stroke-linejoin="round"/>
<path d="M7.81219 13.7972L7.88351 15.8013L10.5292 17.8054L10.9568 17.5117L10.36 14.5228L7.81219 13.7972Z" fill="#F5841F" stroke="#F5841F" stroke-width="0.25" stroke-linecap="round" stroke-linejoin="round"/>
<path d="M14.1192 20.5611L14.1458 19.7404L13.9143 19.5504H10.5114L10.2886 19.7404L10.3065 20.5611L7.45581 19.248L8.45353 20.0428L10.4757 21.399H13.941L15.972 20.0428L16.9608 19.248L14.1192 20.5611Z" fill="#C0AC9D" stroke="#C0AC9D" stroke-width="0.25" stroke-linecap="round" stroke-linejoin="round"/>
<path d="M13.8969 17.8054L13.4693 17.5117H10.9572L10.5296 17.8054L10.2891 19.7405L10.5118 19.5504H13.9147L14.1463 19.7405L13.8969 17.8054Z" fill="#161616" stroke="#161616" stroke-width="0.25" stroke-linecap="round" stroke-linejoin="round"/>
<path d="M22.9828 7.56882L23.74 3.99251L22.5997 0.666687L13.8964 6.92962L17.2459 9.67662L21.9761 11.0156L23.0184 9.83215L22.5641 9.51249L23.2856 8.87329L22.7334 8.45862L23.4549 7.92302L22.9828 7.56882Z" fill="#763E1A" stroke="#763E1A" stroke-width="0.25" stroke-linecap="round" stroke-linejoin="round"/>
<path d="M0.685699 3.99251L1.45181 7.56882L0.961857 7.92302L1.69233 8.45862L1.14002 8.87329L1.86158 9.51249L1.40726 9.83215L2.44953 11.0156L7.17983 9.67662L10.5293 6.92962L1.82595 0.666687L0.685699 3.99251Z" fill="#763E1A" stroke="#763E1A" stroke-width="0.25" stroke-linecap="round" stroke-linejoin="round"/>
<path d="M21.9762 11.0155L17.2459 9.67657L18.6712 11.7671L16.5422 15.8012L19.3572 15.7667H23.5618L21.9762 11.0155Z" fill="#F5841F" stroke="#F5841F" stroke-width="0.25" stroke-linecap="round" stroke-linejoin="round"/>
<path d="M7.17955 9.67657L2.44931 11.0155L0.872559 15.7667H5.06833L7.8833 15.8012L5.75426 11.7671L7.17955 9.67657Z" fill="#F5841F" stroke="#F5841F" stroke-width="0.25" stroke-linecap="round" stroke-linejoin="round"/>
<path d="M13.5937 11.9918L13.8966 6.92955L15.2684 3.32733H9.15738L10.5292 6.92955L10.8321 11.9918L10.9479 13.5812L10.9568 17.5118H13.4689L13.4779 13.5812L13.5937 11.9918Z" fill="#F5841F" stroke="#F5841F" stroke-width="0.25" stroke-linecap="round" stroke-linejoin="round"/>
</g>
<defs>
<clipPath id="clip0_569_709">
<rect width="24" height="22" fill="white"/>
</clipPath>
</defs>
</svg>
