<svg width="24" height="22" viewBox="0 0 24 22" fill="none" xmlns="http://www.w3.org/2000/svg">
<g clip-path="url(#clip0_569_1797)">
<path d="M11.9774 21.9744C18.1171 21.9744 23.0943 17.061 23.0943 11C23.0943 4.93903 18.1171 0.0256348 11.9774 0.0256348C5.83768 0.0256348 0.860474 4.93903 0.860474 11C0.860474 17.061 5.83768 21.9744 11.9774 21.9744Z" fill="#3259A5"/>
<path d="M15.8118 11.7157C15.4722 13.4923 13.8931 14.8357 11.995 14.8357C9.84885 14.8357 8.1095 13.1186 8.1095 11C8.1095 8.88135 9.84885 7.1643 11.995 7.1643C13.8931 7.1643 15.4722 8.50841 15.8118 10.2842H19.7324C19.3668 6.383 16.0423 3.32861 11.995 3.32861C7.70271 3.32861 4.224 6.76348 4.224 11C4.224 15.2372 7.70347 18.6714 11.995 18.6714C16.0423 18.6714 19.3668 15.617 19.7324 11.7157H15.8118Z" fill="white"/>
</g>
<defs>
<clipPath id="clip0_569_1797">
<rect width="24" height="22" fill="white"/>
</clipPath>
</defs>
</svg>
