<svg width="24" height="22" viewBox="0 0 24 22" fill="none" xmlns="http://www.w3.org/2000/svg">
<path d="M4.97044 6.60161C8.86037 2.87637 15.1658 2.87637 19.0608 6.60161L19.5288 7.04942C19.725 7.23642 19.725 7.53661 19.5288 7.72361L17.9285 9.25897C17.8329 9.35247 17.6719 9.35247 17.5762 9.25897L16.9321 8.64384C14.2197 6.04553 9.8165 6.04553 7.10411 8.64384L6.41469 9.30326C6.31908 9.39676 6.15805 9.39676 6.06244 9.30326L4.45715 7.76789C4.26089 7.58089 4.26089 7.28071 4.45715 7.09371L4.97044 6.60161ZM22.372 9.77076L23.7961 11.1339C23.9924 11.3209 23.9924 11.6211 23.7961 11.8081L17.3699 17.9643C17.1737 18.1513 16.8617 18.1513 16.6654 17.9643L12.1011 13.5944C12.0508 13.5501 11.9753 13.5501 11.925 13.5944L7.36579 17.9643C7.16953 18.1513 6.85753 18.1513 6.66127 17.9643L0.230049 11.813C0.0337907 11.626 0.0337907 11.3258 0.230049 11.1388L1.65418 9.77568C1.85044 9.58868 2.16244 9.58868 2.35869 9.77568L6.92295 14.1456C6.97328 14.1899 7.04876 14.1899 7.09908 14.1456L11.6583 9.77568C11.8546 9.58868 12.1666 9.58868 12.3628 9.77568L16.9271 14.1456C16.9774 14.1899 17.0529 14.1899 17.1032 14.1456L21.6675 9.77568C21.8587 9.58376 22.1757 9.58376 22.372 9.77076Z" fill="#3A99FB"/>
</svg>
