<svg width="25" height="24" viewBox="0 0 25 24" fill="none" xmlns="http://www.w3.org/2000/svg">
<g clip-path="url(#clip0_1034_475)">
<path d="M12.4897 0.301025C19.0344 0.301025 24.34 5.52983 24.34 11.9797C24.34 18.4296 19.0344 23.6584 12.4897 23.6584C5.94505 23.6584 0.639404 18.4296 0.639404 11.9797C0.639404 5.52983 5.94505 0.301025 12.4897 0.301025Z" fill="#0052FF"/>
<path d="M12.4949 16.0837C10.1917 16.0837 8.3306 14.2445 8.3306 11.9797C8.3306 9.71487 10.1968 7.87567 12.4949 7.87567C14.5565 7.87567 16.2685 9.35514 16.5975 11.2957H20.7927C20.438 7.0802 16.8597 3.7666 12.4898 3.7666C7.88846 3.7666 4.15601 7.445 4.15601 11.9797C4.15601 16.5143 7.88846 20.1927 12.4898 20.1927C16.8597 20.1927 20.438 16.8791 20.7927 12.6637H16.5924C16.2634 14.6042 14.5565 16.0837 12.4949 16.0837Z" fill="white"/>
</g>
<defs>
<clipPath id="clip0_1034_475">
<rect width="25" height="24" fill="white"/>
</clipPath>
</defs>
</svg>
