<svg width="72" height="72" viewBox="0 0 72 72" fill="none" xmlns="http://www.w3.org/2000/svg">
<path d="M29.25 39.3752C29.25 40.0427 29.0521 40.6952 28.6812 41.2502C28.3104 41.8052 27.7833 42.2378 27.1666 42.4933C26.5499 42.7487 25.8713 42.8156 25.2166 42.6853C24.5619 42.5551 23.9605 42.2337 23.4885 41.7617C23.0165 41.2897 22.6951 40.6883 22.5649 40.0336C22.4347 39.3789 22.5015 38.7003 22.7569 38.0836C23.0124 37.4669 23.445 36.9398 24 36.569C24.555 36.1981 25.2075 36.0002 25.875 36.0002C26.7701 36.0002 27.6286 36.3558 28.2615 36.9887C28.8944 37.6216 29.25 38.4801 29.25 39.3752ZM46.125 36.0002C45.4575 36.0002 44.805 36.1981 44.25 36.569C43.695 36.9398 43.2624 37.4669 43.0069 38.0836C42.7515 38.7003 42.6847 39.3789 42.8149 40.0336C42.9451 40.6883 43.2665 41.2897 43.7385 41.7617C44.2105 42.2337 44.8119 42.5551 45.4666 42.6853C46.1213 42.8156 46.7999 42.7487 47.4166 42.4933C48.0333 42.2378 48.5604 41.8052 48.9312 41.2502C49.3021 40.6952 49.5 40.0427 49.5 39.3752C49.5 38.4801 49.1444 37.6216 48.5115 36.9887C47.8786 36.3558 47.0201 36.0002 46.125 36.0002ZM67.0641 54.2533L48.2203 62.6092C47.6537 62.8611 47.0416 62.9945 46.4216 63.0011C45.8015 63.0078 45.1867 62.8876 44.6148 62.6479C44.0429 62.4081 43.5261 62.054 43.0961 61.6073C42.6661 61.1605 42.3321 60.6305 42.1144 60.0499L39.8335 53.8624C38.5735 53.9467 37.2957 53.9899 36 53.9917C34.7044 53.9936 33.4266 53.9505 32.1666 53.8624L29.8857 60.0499C29.6677 60.6302 29.3334 61.16 28.9033 61.6065C28.4733 62.053 27.9565 62.407 27.3848 62.6467C26.813 62.8863 26.1983 63.0066 25.5784 63.0002C24.9585 62.9938 24.3464 62.8607 23.7797 62.6092L4.93597 54.2533C3.96337 53.8281 3.17334 53.0713 2.70668 52.1179C2.24001 51.1645 2.12702 50.0763 2.38784 49.0474L10.6875 16.3127C10.9066 15.4614 11.3691 14.6924 12.0185 14.0999C12.6679 13.5075 13.476 13.1173 14.3438 12.9771L24.4857 11.3092C25.6037 11.1294 26.7487 11.3719 27.6979 11.9894C28.6471 12.607 29.3326 13.5555 29.6213 14.6505L30.5382 18.2617C32.325 18.0874 34.1457 18.0002 36 18.0002C37.8544 18.0002 39.6732 18.0874 41.4563 18.2617L42.3732 14.6505C42.6612 13.5551 43.3467 12.6062 44.296 11.9886C45.2454 11.3709 46.3907 11.1288 47.5088 11.3092L57.6563 12.9771C58.5241 13.1173 59.3321 13.5075 59.9815 14.0999C60.631 14.6924 61.0935 15.4614 61.3125 16.3127L69.6178 49.0446C69.879 50.0746 69.7656 51.1639 69.2978 52.118C68.83 53.0722 68.0383 53.829 67.0641 54.2533ZM65.25 50.1414L56.9447 17.4377C56.9447 17.4377 56.9447 17.4377 56.9222 17.4377L46.7803 15.7502C46.7731 15.746 46.7648 15.7438 46.7564 15.7438C46.748 15.7438 46.7398 15.746 46.7325 15.7502L45.9366 18.8833C47.3428 19.1477 48.7491 19.4627 50.1075 19.8452C50.6431 19.9817 51.1097 20.3106 51.4183 20.7691C51.7269 21.2276 51.856 21.7836 51.7809 22.3312C51.7058 22.8787 51.4318 23.3795 51.0111 23.738C50.5905 24.0965 50.0526 24.2876 49.5 24.2749C49.2946 24.2743 49.0903 24.2459 48.8925 24.1905C44.6905 23.0503 40.354 22.4817 36 22.5002C31.6462 22.4808 27.3097 23.0484 23.1075 24.1877C22.8205 24.2764 22.5185 24.3068 22.2196 24.2769C21.9206 24.2471 21.6306 24.1577 21.3668 24.014C21.1029 23.8703 20.8705 23.6752 20.6833 23.4402C20.496 23.2052 20.3577 22.9351 20.2766 22.6458C20.1954 22.3565 20.173 22.0539 20.2107 21.7558C20.2484 21.4577 20.3455 21.1702 20.4961 20.9102C20.6467 20.6502 20.8479 20.423 21.0877 20.242C21.3275 20.061 21.6012 19.9299 21.8925 19.8564C23.2482 19.4739 24.6432 19.1589 26.0607 18.8946L25.2647 15.7502C25.2647 15.7502 25.2647 15.7502 25.231 15.7502L15.0778 17.418C15.0696 17.4157 15.0608 17.4157 15.0525 17.418L6.75003 50.1555L25.5938 58.5002C25.6033 58.5054 25.6139 58.5081 25.6247 58.5081C25.6355 58.5081 25.6462 58.5054 25.6557 58.5002L27.5625 53.3589C25.652 53.0667 23.7605 52.6609 21.8982 52.1439C21.3435 51.9667 20.8791 51.5813 20.6026 51.0688C20.3262 50.5562 20.2593 49.9565 20.4159 49.3956C20.5725 48.8347 20.9404 48.3564 21.4424 48.0612C21.9444 47.766 22.5412 47.6769 23.1075 47.8127C27.3094 48.9533 31.6461 49.5209 36 49.5002C40.3539 49.5209 44.6907 48.9533 48.8925 47.8127C49.4673 47.6516 50.0825 47.7254 50.6028 48.0178C51.1231 48.3103 51.5059 48.7975 51.6671 49.3722C51.8282 49.9469 51.7544 50.5621 51.4619 51.0825C51.1694 51.6028 50.6823 51.9856 50.1075 52.1467C48.2433 52.663 46.3499 53.0678 44.4375 53.3589L46.336 58.5002C46.345 58.5051 46.3552 58.5077 46.3655 58.5077C46.3758 58.5077 46.386 58.5051 46.395 58.5002L65.25 50.1414Z" fill="white"/>
</svg>
