<svg width="74" height="74" viewBox="0 0 74 74" fill="none" xmlns="http://www.w3.org/2000/svg">
<path d="M20.8125 18.5C17.1536 18.5 13.5768 19.585 10.5345 21.6178C7.49215 23.6506 5.12096 26.5399 3.72074 29.9204C2.32052 33.3008 1.95415 37.0205 2.66798 40.6092C3.38181 44.1978 5.14376 47.4942 7.73103 50.0815C10.3183 52.6688 13.6147 54.4307 17.2033 55.1445C20.792 55.8584 24.5117 55.492 27.8922 54.0918C31.2726 52.6916 34.1619 50.3204 36.1947 47.278C38.2275 44.2357 39.3125 40.659 39.3125 37C39.3072 32.0951 37.3563 27.3927 33.8881 23.9244C30.4198 20.4562 25.7174 18.5054 20.8125 18.5ZM20.8125 50.875C18.0683 50.875 15.3857 50.0612 13.104 48.5366C10.8222 47.012 9.04385 44.8451 7.99368 42.3097C6.94351 39.7744 6.66874 36.9846 7.20411 34.2931C7.73948 31.6016 9.06095 29.1293 11.0014 27.1889C12.9419 25.2484 15.4141 23.927 18.1056 23.3916C20.7971 22.8562 23.5869 23.131 26.1222 24.1812C28.6576 25.2313 30.8245 27.0097 32.3492 29.2915C33.8738 31.5732 34.6875 34.2558 34.6875 37C34.6837 40.6787 33.2206 44.2056 30.6194 46.8069C28.0182 49.4081 24.4912 50.8712 20.8125 50.875ZM53.1875 18.5C51.5456 18.5 48.4469 19.2978 46.1575 24.6426C44.7267 27.9813 43.9375 32.375 43.9375 37C43.9375 41.625 44.7267 46.0188 46.1575 49.3574C48.4469 54.7022 51.5456 55.5 53.1875 55.5C54.8294 55.5 57.9281 54.7022 60.2175 49.3574C61.6484 46.0188 62.4375 41.625 62.4375 37C62.4375 32.375 61.6484 27.9813 60.2175 24.6426C57.9281 19.2978 54.8294 18.5 53.1875 18.5ZM53.1875 50.875C51.5572 50.875 48.5625 45.6083 48.5625 37C48.5625 28.3917 51.5572 23.125 53.1875 23.125C54.8178 23.125 57.8125 28.3917 57.8125 37C57.8125 45.6083 54.8178 50.875 53.1875 50.875ZM71.6875 20.8125V53.1875C71.6875 53.8008 71.4439 54.389 71.0102 54.8227C70.5765 55.2564 69.9883 55.5 69.375 55.5C68.7617 55.5 68.1735 55.2564 67.7398 54.8227C67.3062 54.389 67.0625 53.8008 67.0625 53.1875V20.8125C67.0625 20.1992 67.3062 19.611 67.7398 19.1773C68.1735 18.7436 68.7617 18.5 69.375 18.5C69.9883 18.5 70.5765 18.7436 71.0102 19.1773C71.4439 19.611 71.6875 20.1992 71.6875 20.8125Z" fill="white"/>
</svg>
