<svg width="44" height="44" viewBox="0 0 44 44" fill="none" xmlns="http://www.w3.org/2000/svg">
<path d="M39.3386 4.50158C39.1256 4.31762 38.8664 4.19527 38.589 4.14772C38.3115 4.10017 38.0264 4.12922 37.7643 4.23174L2.93207 17.8631C2.43842 18.0551 2.02049 18.4022 1.74119 18.8523C1.4619 19.3023 1.33636 19.8309 1.38347 20.3584C1.43058 20.886 1.6478 21.384 2.00242 21.7774C2.35705 22.1708 2.82987 22.4384 3.34973 22.5399L12.3749 24.3119V34.3752C12.3731 34.9233 12.536 35.4594 12.8425 35.9138C13.1489 36.3683 13.5848 36.7203 14.0936 36.9241C14.6017 37.1315 15.1604 37.1813 15.6971 37.067C16.2339 36.9527 16.7238 36.6795 17.1032 36.283L21.455 31.7696L28.3593 37.8127C28.8574 38.2545 29.4998 38.499 30.1657 38.5002C30.4574 38.4999 30.7474 38.4541 31.025 38.3644C31.4787 38.2204 31.8867 37.9602 32.2085 37.6094C32.5303 37.2587 32.7545 36.8298 32.8589 36.3655L39.8354 6.0158C39.8978 5.74209 39.8845 5.45655 39.797 5.1898C39.7095 4.92305 39.551 4.68514 39.3386 4.50158ZM28.8302 10.6891L13.4319 21.7166L4.90692 20.0442L28.8302 10.6891ZM15.1249 34.3752V26.2146L19.3857 29.9511L15.1249 34.3752ZM30.1691 35.7502L15.9585 23.2892L36.4116 8.63002L30.1691 35.7502Z" fill="white"/>
</svg>
