<svg width="65" height="51" viewBox="0 0 65 51" fill="none" xmlns="http://www.w3.org/2000/svg">
<path d="M42.8911 23.6009L29.2036 14.4759C28.86 14.2466 28.4605 14.1149 28.0479 14.095C27.6353 14.075 27.225 14.1674 26.8608 14.3624C26.4966 14.5573 26.1922 14.8476 25.98 15.202C25.7679 15.5565 25.656 15.9619 25.6562 16.375V34.625C25.656 35.0381 25.7679 35.4435 25.98 35.798C26.1922 36.1525 26.4966 36.4427 26.8608 36.6377C27.225 36.8326 27.6353 36.9251 28.0479 36.9051C28.4605 36.8851 28.86 36.7534 29.2036 36.5242L42.8911 27.3992C43.204 27.1909 43.4606 26.9086 43.6381 26.5773C43.8156 26.2459 43.9085 25.8759 43.9085 25.5C43.9085 25.1241 43.8156 24.7541 43.6381 24.4228C43.4606 24.0914 43.204 23.8091 42.8911 23.6009ZM30.2188 30.3619V20.6524L37.513 25.5L30.2188 30.3619ZM62.8207 8.82407C62.552 7.77284 62.0372 6.80055 61.3188 5.98743C60.6003 5.17431 59.6989 4.54366 58.6887 4.14751C48.9136 0.372042 33.3555 0.406261 32.5 0.406261C31.6445 0.406261 16.0864 0.372042 6.31125 4.14751C5.30112 4.54366 4.39966 5.17431 3.68124 5.98743C2.96282 6.80055 2.44803 7.77284 2.17934 8.82407C1.44078 11.6699 0.5625 16.8712 0.5625 25.5C0.5625 34.1288 1.44078 39.3301 2.17934 42.1759C2.44762 43.2277 2.96223 44.2006 3.68068 45.0142C4.39912 45.8279 5.30079 46.4589 6.31125 46.8554C15.6758 50.4683 30.3328 50.5938 32.3118 50.5938H32.6882C34.6672 50.5938 49.3328 50.4683 58.6887 46.8554C59.6992 46.4589 60.6009 45.8279 61.3193 45.0142C62.0378 44.2006 62.5524 43.2277 62.8207 42.1759C63.5592 39.3244 64.4375 34.1288 64.4375 25.5C64.4375 16.8712 63.5592 11.6699 62.8207 8.82407ZM58.4036 41.0467C58.3167 41.3966 58.1481 41.7209 57.9117 41.993C57.6752 42.2651 57.3777 42.4773 57.0434 42.6122C48.0182 46.0968 32.6682 46.0341 32.52 46.0341H32.5C32.346 46.0341 17.0075 46.0911 7.97656 42.6122C7.64227 42.4773 7.34472 42.2651 7.10828 41.993C6.87185 41.7209 6.70327 41.3966 6.61637 41.0467C5.92344 38.4433 5.125 33.6469 5.125 25.5C5.125 17.3531 5.92344 12.5568 6.59641 9.96755C6.6817 9.61561 6.84954 9.28904 7.08607 9.01483C7.32259 8.74062 7.62099 8.52666 7.9566 8.39064C16.6596 5.02864 31.2425 4.96876 32.4373 4.96876H32.5143C32.6682 4.96876 48.0211 4.91743 57.0377 8.39064C57.372 8.52555 57.6695 8.73777 57.906 9.00989C58.1424 9.28201 58.311 9.60629 58.3979 9.95614C59.0766 12.5568 59.875 17.3531 59.875 25.5C59.875 33.6469 59.0766 38.4433 58.4036 41.0325V41.0467Z" fill="white"/>
</svg>
