<svg width="73" height="73" viewBox="0 0 73 73" fill="none" xmlns="http://www.w3.org/2000/svg">
<path d="M46.8911 34.6009L33.2036 25.4759C32.86 25.2466 32.4605 25.1149 32.0479 25.095C31.6353 25.075 31.225 25.1674 30.8608 25.3624C30.4966 25.5573 30.1922 25.8476 29.98 26.202C29.7679 26.5565 29.656 26.9619 29.6562 27.375V45.625C29.656 46.0381 29.7679 46.4435 29.98 46.798C30.1922 47.1525 30.4966 47.4427 30.8608 47.6377C31.225 47.8326 31.6353 47.9251 32.0479 47.9051C32.4605 47.8851 32.86 47.7534 33.2036 47.5242L46.8911 38.3992C47.204 38.1909 47.4606 37.9086 47.6381 37.5773C47.8156 37.2459 47.9085 36.8759 47.9085 36.5C47.9085 36.1241 47.8156 35.7541 47.6381 35.4228C47.4606 35.0914 47.204 34.8091 46.8911 34.6009ZM34.2188 41.3619V31.6524L41.513 36.5L34.2188 41.3619ZM66.8207 19.8241C66.552 18.7728 66.0372 17.8006 65.3188 16.9874C64.6003 16.1743 63.6989 15.5437 62.6887 15.1475C52.9136 11.372 37.3555 11.4063 36.5 11.4063C35.6445 11.4063 20.0864 11.372 10.3112 15.1475C9.30112 15.5437 8.39966 16.1743 7.68124 16.9874C6.96282 17.8006 6.44803 18.7728 6.17934 19.8241C5.44078 22.6699 4.5625 27.8712 4.5625 36.5C4.5625 45.1288 5.44078 50.3301 6.17934 53.1759C6.44762 54.2277 6.96223 55.2006 7.68068 56.0142C8.39912 56.8279 9.30079 57.4589 10.3112 57.8554C19.6758 61.4683 34.3328 61.5938 36.3118 61.5938H36.6882C38.6672 61.5938 53.3328 61.4683 62.6887 57.8554C63.6992 57.4589 64.6009 56.8279 65.3193 56.0142C66.0378 55.2006 66.5524 54.2277 66.8207 53.1759C67.5592 50.3244 68.4375 45.1288 68.4375 36.5C68.4375 27.8712 67.5592 22.6699 66.8207 19.8241ZM62.4036 52.0467C62.3167 52.3966 62.1481 52.7209 61.9117 52.993C61.6752 53.2651 61.3777 53.4773 61.0434 53.6122C52.0182 57.0968 36.6682 57.0341 36.52 57.0341H36.5C36.346 57.0341 21.0075 57.0911 11.9766 53.6122C11.6423 53.4773 11.3447 53.2651 11.1083 52.993C10.8719 52.7209 10.7033 52.3966 10.6164 52.0467C9.92344 49.4433 9.125 44.6469 9.125 36.5C9.125 28.3531 9.92344 23.5568 10.5964 20.9676C10.6817 20.6156 10.8495 20.289 11.0861 20.0148C11.3226 19.7406 11.621 19.5267 11.9566 19.3906C20.6596 16.0286 35.2425 15.9688 36.4373 15.9688H36.5143C36.6682 15.9688 52.0211 15.9174 61.0377 19.3906C61.372 19.5256 61.6695 19.7378 61.906 20.0099C62.1424 20.282 62.311 20.6063 62.3979 20.9561C63.0766 23.5568 63.875 28.3531 63.875 36.5C63.875 44.6469 63.0766 49.4433 62.4036 52.0325V52.0467Z" fill="white"/>
</svg>
