<svg width="48" height="48" viewBox="0 0 48 48" fill="none" xmlns="http://www.w3.org/2000/svg">
<path d="M24.0001 3.75C23.4033 3.75 22.831 3.98705 22.4091 4.40901C21.9871 4.83097 21.7501 5.40326 21.7501 6V16.5C21.7501 17.0967 21.9871 17.669 22.4091 18.091C22.831 18.5129 23.4033 18.75 24.0001 18.75C25.1557 18.7505 26.2788 19.1322 27.1954 19.836C28.112 20.5398 28.7707 21.5264 29.0695 22.6427C29.3682 23.7591 29.2903 24.9428 28.8478 26.0103C28.4053 27.0778 27.6229 27.9696 26.622 28.5472C25.6211 29.1248 24.4576 29.356 23.3119 29.205C22.1662 29.054 21.1023 28.5292 20.2853 27.7119C19.4682 26.8947 18.9436 25.8307 18.7928 24.685C18.642 23.5393 18.8735 22.3758 19.4513 21.375C19.5993 21.1191 19.6954 20.8365 19.7341 20.5434C19.7728 20.2503 19.7534 19.9525 19.677 19.6669C19.6005 19.3814 19.4685 19.1136 19.2886 18.8791C19.1086 18.6446 18.8842 18.4478 18.6282 18.3L9.53443 13.05C9.0175 12.7519 8.40333 12.6713 7.82701 12.826C7.25069 12.9808 6.75943 13.3581 6.46131 13.875C4.23248 17.7354 3.33974 22.2234 3.92153 26.6429C4.50332 31.0625 6.52714 35.1665 9.6791 38.3186C12.8311 41.4707 16.935 43.4947 21.3545 44.0767C25.774 44.6587 30.262 43.7661 34.1226 41.5374C37.9831 39.3088 41.0004 35.8686 42.7065 31.7503C44.4126 27.6321 44.7121 23.066 43.5587 18.7602C42.4052 14.4543 39.8632 10.6494 36.3269 7.93552C32.7907 5.22161 28.4577 3.75038 24.0001 3.75ZM9.37506 18.1519L14.6626 21.2044C14.3902 22.1113 14.2513 23.0531 14.2501 24C14.2501 24.0938 14.2501 24.1875 14.2501 24.2813L8.35693 25.86C8.28429 25.2427 8.2486 24.6216 8.25006 24C8.25134 21.997 8.63311 20.0124 9.37506 18.1519ZM9.53068 30.2081L15.4238 28.6275C16.0781 29.836 16.9796 30.8932 18.0696 31.7303C19.1596 32.5673 20.4136 33.1654 21.7501 33.4856V39.5869C19.0816 39.1968 16.5574 38.1301 14.4178 36.4884C12.2782 34.8468 10.5945 32.6847 9.52693 30.2081H9.53068ZM26.2538 39.5831V33.4856C28.3888 32.9785 30.2904 31.766 31.6509 30.0442C33.0114 28.3224 33.7512 26.192 33.7508 23.9976C33.7504 21.8032 33.0097 19.673 31.6485 17.9518C30.2873 16.2305 28.3853 15.0187 26.2501 14.5125V8.40938C29.999 8.94999 33.4275 10.8235 35.9073 13.6866C38.3871 16.5496 39.7521 20.2104 39.7521 23.9981C39.7521 27.7858 38.3871 31.4466 35.9073 34.3097C33.4275 37.1728 29.999 39.0463 26.2501 39.5869L26.2538 39.5831Z" fill="white"/>
</svg>
