<svg width="48" height="48" viewBox="0 0 48 48" fill="none" xmlns="http://www.w3.org/2000/svg">
<path d="M9.65811 19.5919L3.65811 13.5919C3.44835 13.3828 3.28192 13.1344 3.16836 12.8609C3.0548 12.5875 2.99634 12.2942 2.99634 11.9981C2.99634 11.702 3.0548 11.4088 3.16836 11.1353C3.28192 10.8618 3.44835 10.6134 3.65811 10.4044L9.65811 4.40435C9.86741 4.19506 10.1159 4.02904 10.3893 3.91577C10.6628 3.8025 10.9559 3.7442 11.2519 3.7442C11.5478 3.7442 11.8409 3.8025 12.1144 3.91577C12.3878 4.02904 12.6363 4.19506 12.8456 4.40435C13.0549 4.61365 13.2209 4.86212 13.3342 5.13557C13.4475 5.40903 13.5058 5.70212 13.5058 5.9981C13.5058 6.29409 13.4475 6.58718 13.3342 6.86064C13.2209 7.13409 13.0549 7.38256 12.8456 7.59185L8.43749 12L12.8419 16.4081C13.2646 16.8308 13.502 17.4041 13.502 18.0019C13.502 18.5996 13.2646 19.1729 12.8419 19.5956C12.4192 20.0183 11.8459 20.2558 11.2481 20.2558C10.6503 20.2558 10.0771 20.0183 9.65436 19.5956L9.65811 19.5919ZM18.6581 19.5919C18.8671 19.8016 19.1155 19.968 19.389 20.0816C19.6625 20.1952 19.9557 20.2536 20.2519 20.2536C20.548 20.2536 20.8412 20.1952 21.1147 20.0816C21.3882 19.968 21.6366 19.8016 21.8456 19.5919L27.8456 13.5919C28.0554 13.3828 28.2218 13.1344 28.3354 12.8609C28.4489 12.5875 28.5074 12.2942 28.5074 11.9981C28.5074 11.702 28.4489 11.4088 28.3354 11.1353C28.2218 10.8618 28.0554 10.6134 27.8456 10.4044L21.8456 4.40435C21.4229 3.98167 20.8496 3.7442 20.2519 3.7442C19.6541 3.7442 19.0808 3.98167 18.6581 4.40435C18.2354 4.82704 17.998 5.40033 17.998 5.9981C17.998 6.59588 18.2354 7.16917 18.6581 7.59185L23.0625 12L18.6581 16.4081C18.4489 16.6171 18.283 16.8652 18.1697 17.1384C18.0565 17.4115 17.9982 17.7043 17.9982 18C17.9982 18.2957 18.0565 18.5884 18.1697 18.8616C18.283 19.1347 18.4489 19.3829 18.6581 19.5919ZM37.5 6.74998H33.75C33.1533 6.74998 32.581 6.98703 32.159 7.40899C31.737 7.83095 31.5 8.40324 31.5 8.99998C31.5 9.59672 31.737 10.169 32.159 10.591C32.581 11.0129 33.1533 11.25 33.75 11.25H36.75V36.75H11.25V26.25C11.25 25.6532 11.0129 25.0809 10.591 24.659C10.169 24.237 9.59672 24 8.99999 24C8.40325 24 7.83095 24.237 7.409 24.659C6.98704 25.0809 6.74999 25.6532 6.74999 26.25V37.5C6.74999 38.4945 7.14508 39.4484 7.84834 40.1516C8.5516 40.8549 9.50543 41.25 10.5 41.25H37.5C38.4945 41.25 39.4484 40.8549 40.1516 40.1516C40.8549 39.4484 41.25 38.4945 41.25 37.5V10.5C41.25 9.50542 40.8549 8.55159 40.1516 7.84833C39.4484 7.14507 38.4945 6.74998 37.5 6.74998Z" fill="white"/>
</svg>
