<svg width="25" height="25" viewBox="0 0 25 25" fill="none" xmlns="http://www.w3.org/2000/svg">
<path d="M21.6396 19.2112L15.9068 9.65803V4.80084H16.2818C16.5801 4.80084 16.8663 4.68232 17.0773 4.47134C17.2882 4.26036 17.4068 3.97421 17.4068 3.67584C17.4068 3.37747 17.2882 3.09133 17.0773 2.88035C16.8663 2.66937 16.5801 2.55084 16.2818 2.55084H8.78176C8.48339 2.55084 8.19724 2.66937 7.98626 2.88035C7.77528 3.09133 7.65676 3.37747 7.65676 3.67584C7.65676 3.97421 7.77528 4.26036 7.98626 4.47134C8.19724 4.68232 8.48339 4.80084 8.78176 4.80084H9.15676V9.65803L3.42394 19.2112C3.25323 19.4957 3.16107 19.8204 3.15689 20.1522C3.1527 20.484 3.23663 20.8109 3.40012 21.0997C3.5636 21.3884 3.80077 21.6286 4.08743 21.7957C4.37408 21.9628 4.69995 22.0508 5.03176 22.0508H20.0318C20.3636 22.0508 20.6894 21.9628 20.9761 21.7957C21.2627 21.6286 21.4999 21.3884 21.6634 21.0997C21.8269 20.8109 21.9108 20.484 21.9066 20.1522C21.9024 19.8204 21.8103 19.4957 21.6396 19.2112ZM13.6568 4.80084V9.97022C13.6568 10.174 13.7122 10.3739 13.8171 10.5487L17.1105 16.0368C16.0989 16.1174 14.7527 15.914 13.0399 15.0468C11.7274 14.383 10.4655 13.9846 9.26457 13.8505L11.2464 10.5487C11.3513 10.3739 11.4067 10.174 11.4068 9.97022V4.80084H13.6568ZM5.69363 19.8008L7.93801 16.0687C9.15676 15.9646 10.5274 16.2955 12.0274 17.0549C13.8658 17.9849 15.4258 18.3027 16.7008 18.3027C17.2576 18.3049 17.8127 18.2413 18.3546 18.1133L19.3699 19.8008H5.69363Z" fill="white"/>
</svg>
