<svg width="122" height="122" viewBox="0 0 122 122" fill="none" xmlns="http://www.w3.org/2000/svg">
<path d="M83.8751 55.2812H72.4376C70.9208 55.2812 69.4663 54.6787 68.3938 53.6063C67.3213 52.5338 66.7188 51.0792 66.7188 49.5625C66.7188 48.0458 67.3213 46.5912 68.3938 45.5187C69.4663 44.4463 70.9208 43.8437 72.4376 43.8437H83.8751C85.3918 43.8437 86.8463 44.4463 87.9188 45.5187C88.9913 46.5912 89.5938 48.0458 89.5938 49.5625C89.5938 51.0792 88.9913 52.5338 87.9188 53.6063C86.8463 54.6787 85.3918 55.2812 83.8751 55.2812ZM49.5626 43.8437H47.6563V41.9375C47.6563 40.4208 47.0538 38.9662 45.9813 37.8937C44.9088 36.8213 43.4543 36.2187 41.9376 36.2187C40.4208 36.2187 38.9663 36.8213 37.8938 37.8937C36.8213 38.9662 36.2188 40.4208 36.2188 41.9375V43.8437H34.3126C32.7958 43.8437 31.3413 44.4463 30.2688 45.5187C29.1963 46.5912 28.5938 48.0458 28.5938 49.5625C28.5938 51.0792 29.1963 52.5338 30.2688 53.6063C31.3413 54.6787 32.7958 55.2812 34.3126 55.2812H36.2188V57.1875C36.2188 58.7042 36.8213 60.1588 37.8938 61.2313C38.9663 62.3037 40.4208 62.9062 41.9376 62.9062C43.4543 62.9062 44.9088 62.3037 45.9813 61.2313C47.0538 60.1588 47.6563 58.7042 47.6563 57.1875V55.2812H49.5626C51.0793 55.2812 52.5338 54.6787 53.6063 53.6063C54.6788 52.5338 55.2813 51.0792 55.2813 49.5625C55.2813 48.0458 54.6788 46.5912 53.6063 45.5187C52.5338 44.4463 51.0793 43.8437 49.5626 43.8437ZM116.643 96.7136C115.047 98.99 112.972 100.89 110.563 102.279C108.155 103.669 105.472 104.515 102.702 104.758C99.9322 105.001 97.1427 104.635 94.5292 103.686C91.9158 102.736 89.5416 101.227 87.5732 99.2632C87.4841 99.1789 87.3998 99.0899 87.3206 98.9963L68.9444 78.1562H53.0558L34.6986 98.9963C34.6176 99.0869 34.5318 99.1774 34.446 99.2632C31.5785 102.127 27.8729 104.002 23.8672 104.617C19.8614 105.232 15.764 104.554 12.1697 102.682C8.57531 100.81 5.67113 97.8412 3.8787 94.2065C2.08627 90.5717 1.49887 86.4604 2.20177 82.4691C2.19908 82.4374 2.19908 82.4055 2.20177 82.3738L10.0079 42.314C11.25 35.2677 14.9343 28.884 20.4142 24.2835C25.894 19.683 32.8192 17.1596 39.9741 17.1562H81.9688C89.1016 17.1664 96.0058 19.6731 101.484 24.2413C106.962 28.8096 110.668 35.1513 111.959 42.1663C111.96 42.1964 111.96 42.2266 111.959 42.2568L119.755 82.3691C119.757 82.4008 119.757 82.4326 119.755 82.4644C120.204 84.9273 120.16 87.4547 119.626 89.9006C119.092 92.3464 118.078 94.662 116.643 96.7136ZM81.9688 66.7187C87.0245 66.7187 91.8731 64.7104 95.448 61.1355C99.0229 57.5606 101.031 52.7119 101.031 47.6562C101.031 42.6006 99.0229 37.7519 95.448 34.177C91.8731 30.6021 87.0245 28.5937 81.9688 28.5937H39.9789C35.5043 28.5982 31.1746 30.1804 27.7515 33.0622C24.3285 35.9439 22.0313 39.9406 21.2643 44.3489C21.262 44.3822 21.262 44.4157 21.2643 44.449L13.4772 84.4802C13.1395 86.4663 13.6015 88.5054 14.7623 90.152C15.9232 91.7986 17.6884 92.9188 19.6726 93.268C20.8537 93.474 22.0668 93.3998 23.214 93.0513C24.3613 92.7028 25.4106 92.0898 26.2777 91.2617L46.179 68.6584C46.7153 68.0492 47.3752 67.5612 48.1147 67.2268C48.8542 66.8924 49.6564 66.7192 50.468 66.7187H81.9688ZM108.542 84.4993L105.206 67.3669C102.582 70.4694 99.3638 73.0149 95.7403 74.8533C92.1168 76.6916 88.1617 77.7856 84.1086 78.0705L95.7415 91.2808C96.8991 92.3914 98.3775 93.1086 99.9663 93.3303C101.555 93.552 103.173 93.267 104.591 92.5158C106.008 91.7646 107.153 90.5854 107.861 89.1461C108.57 87.7069 108.806 86.0808 108.537 84.4993H108.542Z" fill="white"/>
</svg>
