<svg width="39" height="38" viewBox="0 0 39 38" fill="none" xmlns="http://www.w3.org/2000/svg">
<g clip-path="url(#clip0_304_330)">
<path d="M26.5191 22.3563L21.2209 18.3826V10.2882C21.2209 9.47428 20.563 8.81641 19.7491 8.81641C18.9352 8.81641 18.2773 9.47428 18.2773 10.2882V19.1186C18.2773 19.5821 18.4952 20.0193 18.866 20.296L24.7529 24.7112C25.0178 24.9099 25.3269 25.0055 25.6345 25.0055C26.0834 25.0055 26.5249 24.8039 26.8134 24.4153C27.3021 23.7662 27.1696 22.8435 26.5191 22.3563Z" fill="#F8672C"/>
<path d="M19.75 0C9.27276 0 0.75 8.52276 0.75 19C0.75 29.4772 9.27276 38 19.75 38C30.2272 38 38.75 29.4772 38.75 19C38.75 8.52276 30.2272 0 19.75 0ZM19.75 35.0566C10.8976 35.0566 3.69344 27.8524 3.69344 19C3.69344 10.1476 10.8976 2.94344 19.75 2.94344C28.6039 2.94344 35.8066 10.1476 35.8066 19C35.8066 27.8524 28.6024 35.0566 19.75 35.0566Z" fill="#F8672C"/>
</g>
<defs>
<clipPath id="clip0_304_330">
<rect width="38" height="38" fill="white" transform="translate(0.75)"/>
</clipPath>
</defs>
</svg>
