<svg width="22" height="39" viewBox="0 0 22 39" fill="none" xmlns="http://www.w3.org/2000/svg">
<path d="M12.7 17.3624V8.81501C14.5285 9.12343 16.2525 9.87371 17.7265 11.0004C18.0203 11.2019 18.3651 11.3112 18.7221 11.316C19.8658 11.316 20.7982 10.3957 20.8103 9.25206C20.8127 8.76159 20.6209 8.29051 20.2761 7.94084C18.1466 6.1172 15.4755 5.04152 12.6757 4.88126V2.01591C12.6757 1.19756 12.0128 0.534658 11.1945 0.534658C11.1775 0.532254 11.1605 0.532254 11.1435 0.532254C10.313 0.520083 9.62827 1.18306 9.6161 2.01591V4.78412C4.15256 5.17263 0.43738 8.54791 0.43738 13.0401C0.43738 18.5522 5.12389 20.0821 9.6161 21.2961V31.0091C7.2461 30.691 5.01216 29.7076 3.18124 28.1681C2.83646 27.8937 2.40902 27.7408 1.96709 27.7311C0.847682 27.8088 -0.0143204 28.746 0.000180274 29.8679C-0.00222399 30.3584 0.18959 30.8295 0.534377 31.1792C3.04277 33.4374 6.26749 34.7366 9.64029 34.8458V37.5169C9.64029 37.5338 9.64269 37.5509 9.64269 37.5679C9.68154 38.3983 10.3882 39.0394 11.2186 38.9981C12.037 38.9981 12.6999 38.3352 12.6999 37.5169V34.7973C19.3289 34.3602 22 30.3293 22 26.0556C22.0001 20.3249 17.1923 18.5765 12.7 17.3624ZM9.64044 16.5854C6.99365 15.8083 4.92967 15.007 4.92967 12.7488C4.92967 10.4905 6.79943 8.86355 9.64044 8.64506V16.5854ZM12.7 31.0577V22.2189C15.444 22.9959 17.5807 24.0401 17.5565 26.5897C17.5565 28.4352 16.2938 30.6206 12.7 31.0577Z" fill="#F8672C"/>
</svg>
