<svg width="39" height="38" viewBox="0 0 39 38" fill="none" xmlns="http://www.w3.org/2000/svg">
<path d="M21.875 21.375H17.125C15.8133 21.375 14.75 22.4383 14.75 23.75V33.25C14.75 34.5617 15.8133 35.625 17.125 35.625H21.875C23.1867 35.625 24.25 34.5617 24.25 33.25V23.75C24.25 22.4383 23.1867 21.375 21.875 21.375Z" fill="#F8672C"/>
<path d="M10 24.9375H5.25C3.93832 24.9375 2.875 26.0008 2.875 27.3125V33.25C2.875 34.5617 3.93832 35.625 5.25 35.625H10C11.3117 35.625 12.375 34.5617 12.375 33.25V27.3125C12.375 26.0008 11.3117 24.9375 10 24.9375Z" fill="#F8672C"/>
<path d="M33.75 15.4375H29C27.6883 15.4375 26.625 16.5008 26.625 17.8125V33.25C26.625 34.5617 27.6883 35.625 29 35.625H33.75C35.0617 35.625 36.125 34.5617 36.125 33.25V17.8125C36.125 16.5008 35.0617 15.4375 33.75 15.4375Z" fill="#F8672C"/>
<path d="M7.62402 20.1875C7.72294 20.1874 7.82147 20.175 7.91734 20.1507C12.1677 19.0679 16.2573 17.4309 20.0809 15.2819C24.2434 12.9297 28.0466 9.99195 31.374 6.55856V9.5C31.374 9.81494 31.4991 10.117 31.7218 10.3397C31.9445 10.5624 32.2466 10.6875 32.5615 10.6875C32.8765 10.6875 33.1785 10.5624 33.4012 10.3397C33.6239 10.117 33.749 9.81494 33.749 9.5V3.5625C33.749 3.24756 33.6239 2.94551 33.4012 2.72281C33.1785 2.50011 32.8765 2.375 32.5615 2.375H26.624C26.3091 2.375 26.007 2.50011 25.7843 2.72281C25.5616 2.94551 25.4365 3.24756 25.4365 3.5625C25.4365 3.87744 25.5616 4.17949 25.7843 4.40219C26.007 4.62489 26.3091 4.75 26.624 4.75H29.8018C26.6043 8.08556 22.9375 10.9371 18.9172 13.2145C15.2748 15.2596 11.3792 16.8167 7.33071 17.8457C7.04696 17.9142 6.79837 18.0849 6.63243 18.325C6.46648 18.5652 6.39481 18.858 6.43108 19.1477C6.46736 19.4373 6.60906 19.7035 6.8291 19.8953C7.04915 20.0871 7.33214 20.1911 7.62402 20.1875Z" fill="#F8672C"/>
</svg>
