<svg width="39" height="38" viewBox="0 0 39 38" fill="none" xmlns="http://www.w3.org/2000/svg">
<g clip-path="url(#clip0_304_304)">
<path d="M23.6927 11.5742C23.5937 11.6106 23.4948 11.651 23.3958 11.6834C23.5272 12.1505 24.4258 15.1208 26.6678 17.3597C26.9789 17.6692 26.9789 18.1696 26.6693 18.4791C26.515 18.6343 26.3115 18.7118 26.1088 18.7118C25.9062 18.7118 25.7027 18.6343 25.5499 18.4807C24.208 17.142 23.3016 15.6014 22.7221 14.3577C22.4181 15.1383 21.9914 15.9948 21.3984 16.7493C21.1285 17.0937 20.6305 17.1546 20.2885 16.8831C19.9441 16.6131 19.884 16.1152 20.1539 15.7724C21.1483 14.5065 21.5924 12.8337 21.7539 12.0864C20.9812 12.2186 20.218 12.2772 19.4834 12.2772C17.5311 12.2772 15.799 11.894 14.693 11.575C10.4418 15.0219 5.28801 23.3257 5.32047 30.2654C5.33788 33.9918 7.36059 38.0016 11.7607 38.0016H26.629H26.6519C30.1653 37.8955 33.214 34.2752 33.1768 30.2543C33.1143 23.3051 27.9281 15.0124 23.6927 11.5742ZM19.249 25.9912C21.2425 25.9912 22.8638 27.3711 22.8638 29.0684C22.8638 30.5338 21.6533 31.7569 20.0407 32.0649V32.9983C20.0407 33.4361 19.6868 33.7899 19.249 33.7899C18.8113 33.7899 18.4574 33.4361 18.4574 32.9983V32.0649C16.844 31.7561 15.6327 30.5314 15.6327 29.0684C15.6327 28.6306 15.9874 28.2768 16.4244 28.2768C16.8614 28.2768 17.216 28.6306 17.216 29.0684C17.216 29.8775 18.147 30.5615 19.249 30.5615C20.3503 30.5615 21.2805 29.8791 21.2805 29.0684C21.2805 28.2593 20.351 27.5746 19.249 27.5746C17.2548 27.5746 15.6327 26.1947 15.6327 24.4966C15.6327 23.032 16.844 21.8081 18.4574 21.5009V20.6823C18.4574 20.2445 18.812 19.8906 19.249 19.8906C19.686 19.8906 20.0407 20.2445 20.0407 20.6823V21.5009C21.6533 21.8096 22.8638 23.0336 22.8638 24.4966C22.8638 24.9351 22.5099 25.2882 22.0721 25.2882C21.6343 25.2882 21.2805 24.9351 21.2805 24.4966C21.2805 23.7223 20.4239 22.9963 19.2443 22.9963C18.0647 22.9963 17.2153 23.7231 17.2153 24.4966C17.216 25.3072 18.147 25.9912 19.249 25.9912ZM14.3581 9.8056C12.39 7.73776 10.5003 4.77535 10.5312 3.14214C10.566 2.40668 10.6888 1.63797 11.3395 1.33951C12.029 1.02364 12.6632 1.51764 13.2205 1.95147C13.5863 2.23647 14.1396 2.66081 14.4183 2.60618C14.5806 2.56897 14.7943 2.31643 15.4261 1.40047C16.0586 0.483722 16.8281 -0.056986 17.619 0.00238896C18.5801 0.0728473 19.0773 0.985639 19.5586 1.86914C19.9354 2.51751 20.2679 3.10335 20.7398 3.56806C20.8656 3.46118 21.0691 3.21418 21.2116 3.04001C21.989 2.09318 23.437 0.328556 26.4857 1.54851C26.7873 1.66806 26.9836 1.96018 26.9836 2.28397C26.9836 4.45631 25.4169 7.68947 23.7307 9.84993C19.9679 11.5164 15.5543 10.2181 14.3581 9.8056Z" fill="#FF6F31"/>
</g>
<defs>
<clipPath id="clip0_304_304">
<rect width="38" height="38" fill="white" transform="translate(0.25)"/>
</clipPath>
</defs>
</svg>
